<?xml version="1.0" encoding="utf-8"?>
<!-- Generator: Adobe Illustrator 16.0.0, SVG Export Plug-In . SVG Version: 6.00 Build 0)  -->
<!DOCTYPE svg PUBLIC "-//W3C//DTD SVG 1.1//EN" "http://www.w3.org/Graphics/SVG/1.1/DTD/svg11.dtd">
<svg version="1.1" id="Layer_1" xmlns="http://www.w3.org/2000/svg" xmlns:xlink="http://www.w3.org/1999/xlink" x="0px" y="0px"
	 width="293.482px" height="112.336px" viewBox="0 0 293.482 112.336" enable-background="new 0 0 293.482 112.336"
	 xml:space="preserve">
<g>
	<path fill="#FFFFFF" d="M57.808,106.643l-0.649-1.51h-2.931l-0.649,1.51h-1.66l3.021-6.99h1.511l3.021,6.99H57.808z
		 M55.698,101.733l-0.881,2.03h1.75L55.698,101.733z"/>
	<path fill="#FFFFFF" d="M68.532,100.278c0.49,0.417,0.735,1.057,0.735,1.92s-0.252,1.495-0.755,1.895
		c-0.505,0.4-1.272,0.601-2.307,0.601h-0.93v1.95h-1.561v-6.99h2.471C67.261,99.653,68.042,99.861,68.532,100.278z M67.388,103.028
		c0.187-0.21,0.278-0.516,0.278-0.92c0-0.402-0.121-0.689-0.363-0.859c-0.244-0.17-0.622-0.256-1.137-0.256h-0.89v2.35h1.05
		C66.848,103.342,67.201,103.238,67.388,103.028z"/>
	<path fill="#FFFFFF" d="M76.768,105.678c-0.707,0.689-1.577,1.035-2.61,1.035s-1.903-0.346-2.61-1.035
		c-0.706-0.69-1.06-1.549-1.06-2.575s0.354-1.886,1.06-2.575c0.707-0.689,1.577-1.035,2.61-1.035s1.903,0.346,2.61,1.035
		c0.706,0.689,1.06,1.549,1.06,2.575C77.827,104.129,77.474,104.988,76.768,105.678z M76.237,103.108c0-0.623-0.2-1.154-0.6-1.595
		c-0.4-0.44-0.893-0.66-1.477-0.66c-0.583,0-1.075,0.22-1.475,0.66c-0.4,0.44-0.602,0.972-0.602,1.595c0,0.624,0.2,1.154,0.602,1.59
		c0.398,0.438,0.892,0.655,1.475,0.655c0.584,0,1.075-0.218,1.477-0.655C76.037,104.262,76.237,103.731,76.237,103.108z"/>
	<path fill="#FFFFFF" d="M85.428,105.678c-0.707,0.689-1.577,1.035-2.61,1.035s-1.903-0.346-2.61-1.035
		c-0.706-0.69-1.06-1.549-1.06-2.575s0.354-1.886,1.06-2.575c0.707-0.689,1.577-1.035,2.61-1.035s1.903,0.346,2.61,1.035
		c0.705,0.689,1.06,1.549,1.06,2.575C86.487,104.129,86.134,104.988,85.428,105.678z M84.897,103.108c0-0.623-0.2-1.154-0.601-1.595
		c-0.399-0.44-0.892-0.66-1.476-0.66c-0.583,0-1.075,0.22-1.475,0.66c-0.4,0.44-0.602,0.972-0.602,1.595
		c0,0.624,0.2,1.154,0.602,1.59c0.398,0.438,0.892,0.655,1.475,0.655c0.584,0,1.075-0.218,1.476-0.655
		C84.697,104.262,84.897,103.731,84.897,103.108z"/>
	<path fill="#FFFFFF" d="M88.208,106.643v-6.99h1.561v5.6h2.979v1.391H88.208z"/>
	<path fill="#FFFFFF" d="M102.127,99.653v1.37h-3.239v1.511h3.079v1.369h-3.079v2.74h-1.561v-6.99H102.127z"/>
	<path fill="#FFFFFF" d="M109.728,105.678c-0.707,0.689-1.577,1.035-2.61,1.035s-1.903-0.346-2.61-1.035
		c-0.706-0.69-1.06-1.549-1.06-2.575s0.354-1.886,1.06-2.575c0.707-0.689,1.577-1.035,2.61-1.035s1.903,0.346,2.61,1.035
		c0.706,0.689,1.06,1.549,1.06,2.575C110.787,104.129,110.434,104.988,109.728,105.678z M109.197,103.108
		c0-0.623-0.2-1.154-0.6-1.595c-0.4-0.44-0.893-0.66-1.477-0.66c-0.583,0-1.075,0.22-1.475,0.66c-0.4,0.44-0.602,0.972-0.602,1.595
		c0,0.624,0.2,1.154,0.602,1.59c0.398,0.438,0.892,0.655,1.475,0.655c0.584,0,1.075-0.218,1.477-0.655
		C108.997,104.262,109.197,103.731,109.197,103.108z"/>
	<path fill="#FFFFFF" d="M118.178,101.973c0,1.119-0.443,1.843-1.33,2.17l1.77,2.5h-1.92l-1.55-2.23h-1.08v2.23h-1.561v-6.99h2.649
		c1.087,0,1.861,0.184,2.325,0.551C117.945,100.57,118.178,101.161,118.178,101.973z M116.298,102.803
		c0.193-0.174,0.29-0.448,0.29-0.825c0-0.376-0.101-0.636-0.301-0.774c-0.199-0.141-0.55-0.211-1.05-0.211h-1.17v2.07h1.14
		C115.741,103.063,116.104,102.977,116.298,102.803z"/>
	<path fill="#FFFFFF" d="M128.257,99.653v1.391h-3.479v1.439h3.13v1.33h-3.13v1.45h3.59v1.38h-5.149v-6.99H128.257z"/>
	<path fill="#FFFFFF" d="M132.737,104.103l1.779-4.45h1.689l-2.811,6.99h-1.319l-2.811-6.99h1.689L132.737,104.103z"/>
	<path fill="#FFFFFF" d="M142.477,99.653v1.391h-3.48v1.439h3.13v1.33h-3.13v1.45h3.59v1.38h-5.148v-6.99H142.477z"/>
	<path fill="#FFFFFF" d="M150.047,101.973c0,1.119-0.442,1.843-1.33,2.17l1.771,2.5h-1.92l-1.55-2.23h-1.08v2.23h-1.561v-6.99h2.649
		c1.087,0,1.861,0.184,2.325,0.551C149.814,100.57,150.047,101.161,150.047,101.973z M148.167,102.803
		c0.193-0.174,0.29-0.448,0.29-0.825c0-0.376-0.101-0.636-0.301-0.774c-0.199-0.141-0.55-0.211-1.05-0.211h-1.17v2.07h1.14
		C147.61,103.063,147.974,102.977,148.167,102.803z"/>
	<path fill="#FFFFFF" d="M154.877,106.643h-1.561v-2.76l-2.42-4.23h1.689l1.511,2.6l1.51-2.6h1.689l-2.42,4.23L154.877,106.643
		L154.877,106.643z"/>
	<path fill="#FFFFFF" d="M161.507,106.643h-3.06v-6.99h2.72c0.475,0,0.882,0.057,1.226,0.17s0.602,0.268,0.774,0.461
		c0.313,0.359,0.471,0.766,0.471,1.219c0,0.547-0.178,0.955-0.53,1.221c-0.119,0.093-0.203,0.152-0.25,0.175
		c-0.046,0.022-0.13,0.062-0.25,0.115c0.434,0.093,0.777,0.288,1.035,0.585c0.257,0.297,0.386,0.665,0.386,1.105
		c0,0.486-0.167,0.916-0.5,1.289C163.141,106.426,162.467,106.643,161.507,106.643z M160.007,102.483h0.74
		c0.435,0,0.755-0.046,0.965-0.141c0.21-0.094,0.315-0.295,0.315-0.604s-0.097-0.515-0.29-0.614c-0.193-0.101-0.521-0.15-0.98-0.15
		h-0.75V102.483L160.007,102.483z M160.007,105.323h1.07c0.446,0,0.781-0.055,1.005-0.164c0.225-0.111,0.335-0.328,0.335-0.65
		c0-0.324-0.118-0.537-0.354-0.641s-0.614-0.154-1.135-0.154h-0.921V105.323L160.007,105.323z"/>
	<path fill="#FFFFFF" d="M171.617,105.678c-0.707,0.689-1.577,1.035-2.61,1.035c-1.032,0-1.902-0.346-2.609-1.035
		c-0.706-0.69-1.061-1.549-1.061-2.575s0.354-1.886,1.061-2.575c0.707-0.689,1.577-1.035,2.609-1.035
		c1.033,0,1.903,0.346,2.61,1.035c0.706,0.689,1.06,1.549,1.06,2.575S172.323,104.988,171.617,105.678z M171.087,103.108
		c0-0.623-0.199-1.154-0.6-1.595s-0.892-0.66-1.476-0.66c-0.583,0-1.075,0.22-1.476,0.66c-0.399,0.44-0.601,0.972-0.601,1.595
		c0,0.624,0.199,1.154,0.601,1.59c0.399,0.438,0.893,0.655,1.476,0.655c0.584,0,1.074-0.218,1.476-0.655
		C170.887,104.262,171.087,103.731,171.087,103.108z"/>
	<path fill="#FFFFFF" d="M179.736,100.568c0.666,0.61,1,1.458,1,2.545s-0.325,1.946-0.977,2.58c-0.648,0.634-1.642,0.95-2.975,0.95
		h-2.39v-6.99h2.47C178.112,99.653,179.069,99.958,179.736,100.568z M178.591,104.723c0.385-0.36,0.575-0.883,0.575-1.57
		s-0.19-1.215-0.575-1.585c-0.383-0.37-0.972-0.555-1.765-0.555h-0.87v4.25h0.99C177.659,105.263,178.208,105.083,178.591,104.723z"
		/>
	<path fill="#FFFFFF" d="M185.257,106.643h-1.561v-2.76l-2.42-4.23h1.689l1.511,2.6l1.51-2.6h1.69l-2.42,4.23V106.643
		L185.257,106.643z"/>
</g>
<g>
	<path fill="#FFFFFF" d="M231.086,34.884c-0.264-0.108-0.528-0.213-0.8-0.303c-2.937-0.975-4.258-0.474-5.204,2.403
		c-4.094,12.44-10.455,23.794-16.728,35.19c-1.212,2.201-2.401,4.459-4.563,6.748c0.075-1.381,0.004-2.219,0.183-3
		c2.683-11.781,6.458-23.21,11.361-34.25c2.485-5.597,2.258-6.328-3.599-8.393c-0.269-0.094-0.58-0.084-0.829-0.208
		c-2.21-1.099-3.503-0.228-4.511,1.837c-3.006,6.164-5.455,12.546-7.148,19.171c-2.264,8.858-8.629,14.89-14.115,21.574
		c3.687-15.287,8.563-30.142,14.104-44.788c0.475-1.256,1.083-1.759,2.473-1.656c7.708,0.569,15.491-0.031,23.14,1.503
		c0.625,0.125,1.298,0.376,1.373-0.779c0.149-2.32-2.211-5.729-4.547-6.131c-5.221-0.898-10.494-0.3-15.744-0.439
		c-1.076-0.029-2.153-0.004-3.449-0.004c0.43-1.051,0.781-1.632,0.904-2.259c0.387-1.974,3.657-3.232,1.963-5.486
		c-1.325-1.762-3.783-2.425-5.949-3.161c-0.271-0.091-0.588-0.07-0.832-0.2c-1.558-0.823-2.587-0.146-3.256,1.22
		c-1.29,2.638-2.685,5.248-3.683,7.998c-0.712,1.962-1.787,2.464-3.757,2.504c-5.353,0.108-10.701,0.445-16.047,0.776
		c-0.557,0.035-1.516-0.191-1.706,0.629c-0.157,0.676,0.45,1.241,0.968,1.65c1.604,1.271,3.408,2.041,5.492,2.121
		c3.854,0.146,7.705,0.335,11.729,0.514c-1.361,3.734-2.653,7.192-3.884,10.671c-1.36,3.855-2.36,4.57-6.808,4.598
		c1.066-2.398,0.092-4.25-1.607-5.843c-2.654-2.489-5.564-4.594-8.947-6.039c-2.1-0.896-4.111-0.843-6.026,0.249
		c-7.086,4.039-10.78,10.312-10.403,18.331c0.17,3.595-0.657,6.21-2.849,8.73c-1.064,1.225-1.993,2.57-3.084,3.77
		c-4.955,5.441-9.835,10.979-16.152,14.938c-1.08,0.677-2.359,1.726-3.665,0.921c-1.367-0.842-1.227-2.531-1.144-3.922
		c0.309-5.107,1.641-9.986,3.488-14.97c2.359,2.096,4.842,3.26,7.721,1.897c7.1-3.361,10.652-9.409,11.685-16.85
		c0.777-5.594-3.958-7.981-7.541-10.883c-0.37-0.3-0.761-0.579-1.162-0.835c-4.238-2.708-5.813-2.517-9.387,1.202
		c-3.966,4.126-6.431,9.176-8.506,14.397c-1.574,3.958-1.961,8.639-4.32,11.979c-4.73,6.699-10.619,12.533-17.599,17.059
		c-1.066,0.691-2.359,1.725-3.665,0.932c-1.376-0.836-1.236-2.529-1.152-3.918c0.311-5.111,1.639-9.994,3.43-14.816
		c4.685,3.175,7.425,3.018,11.667-0.592c1.98-1.688,3.565-3.696,4.873-5.952c5.034-8.685,4.04-13.348-4.127-19.141
		c-5.986-4.246-7.944-3.977-12.58,1.738c-0.3,0.369-0.54,0.786-0.817,1.174c-3.957,5.552-6.785,11.688-8.499,18.227
		c-2.052,7.83-7.249,13.617-11.771,20.07c-0.508-0.884-0.271-1.502-0.119-2.117c1.864-7.565,4.21-14.979,7.188-22.179
		c1.157-2.797,0.909-5.373-0.727-7.855c-1.806-2.74-4.242-4.906-6.583-7.158c-2.772-2.667-2.919-4.067-0.757-7.164
		c2.562-3.669,2.57-3.683-1.209-6.225c-0.941-0.633-1.914-1.271-2.96-1.683c-1.275-0.502-2.561-0.504-3.78,0.435
		c-3.635,2.797-5.574,9.367-3.711,13.613c0.445,1.015-0.139,1.46-0.388,2.015c-2.451,5.448-5.084,10.815-7.486,16.285
		c-3.428,7.807-6.937,15.605-9.036,23.905c-1.156,4.566,2.293,9.146,6.706,9.791c2.37-16.852,9.601-31.975,16.136-47.484
		c4.923,3.964,5.127,4.665,3.225,10.027c-2.537,7.146-5.459,14.158-7.324,21.536c-1.92,7.593-1.22,9.751,4.927,14.478
		c3.248,2.496,4.566,2.338,7.146-0.787c2.653-3.215,4.609-6.893,6.86-10.543c1.081,4.97,3.893,8.494,7.999,10.878
		c6.498,3.772,8.749,2.629,12.725-1.181c1.936-1.854,3.791-3.779,5.401-5.933c1.386-1.851,2.814-3.667,4.408-5.735
		c0.09,6.735,3.879,10.582,8.876,13.445c4.68,2.684,7.378,2.219,11.343-1.382c3.657-3.321,6.621-7.243,9.752-11.521
		c1.154,4.217,2.283,8.037,4.685,11.303c2.127,2.896,4.537,3.775,7.957,2.894c9.995-2.577,14.959-13.353,10.369-22.483
		c-1.915-3.811-4.286-7.405-5.475-11.562c-1.416-4.953,1.662-11.328,6.416-13.309c0.534-0.222,1.343-0.711,1.562-0.284
		c0.765,1.489,0.253,3.154,0.293,4.75c0.03,1.233-0.775,1.86-1.783,1.772c-2.725-0.238-2.981,1.382-2.838,3.416
		c0.101,1.426,0.087,2.875,0.356,4.269c0.34,1.752,0.603,4.037,2.582,4.378c1.808,0.312,3.107-1.622,3.746-3.097
		c1.82-4.207,5.817-5.139,9.708-7.302c-2.317,7.603-4.269,14.726-5.757,21.968c-1.035,5.041-2.416,9.961,2.138,14.358
		c4.522,4.367,5.24,4.476,9.146-0.551c2.646-3.406,4.768-7.165,7.459-11.214c0,1.933-0.038,3.252,0.007,4.568
		c0.157,4.59,2.205,7.936,6.398,10.008c2.269,1.121,3.98,0.734,5.526-1.198c2.044-2.556,3.341-5.526,4.818-8.397
		c0.215-0.047,0.342-0.543,0.533-0.283c0.335,0.457,0.222,1.018-0.017,1.526c-0.147,0.743-0.263,1.495-0.451,2.228
		c-1.774,6.908-3.558,13.816-4.781,20.848c-0.967,5.549,0.268,7.361,5.631,9.219c1.957,0.678,2.252,0.02,2.375-1.714
		c0.176-2.464,0.482-4.938,0.985-7.356c4.299-20.696,11.066-40.635,18.688-60.302C236.379,37.505,236.228,37.002,231.086,34.884z
		 M138.666,39.819c0.792,7.848-3.643,15.729-10.343,18.139C131.238,51.314,133.134,44.809,138.666,39.819z M108.251,39.65
		c0.703,8.163-3.723,15.978-10.28,18.257C100.689,51.319,102.769,44.906,108.251,39.65z M156.989,79.695
		c-4.802-1.062-7.791-4.489-10.462-8.276c-0.297-0.422-0.209-0.908,0.074-1.344c2.208-3.412,3.768-7.139,5.199-11.293
		c1.948,5.487,4.393,10.312,6.58,15.25c0.458,1.031,0.757,2.156,0.978,3.268C159.73,79.18,158.872,80.112,156.989,79.695z"/>
	<path fill="#FFFFFF" d="M293.197,55.624c-2.329,2.986-4.352,5.854-6.655,8.475c-4.798,5.457-9.724,10.815-15.867,14.829
		c-1.131,0.738-2.524,1.908-3.909,1.072c-1.454-0.877-1.237-2.666-1.148-4.176c0.294-5.029,1.668-9.807,3.376-14.553
		c4.806,3.195,7.56,3.006,11.879-0.754c2.036-1.773,3.648-3.892,4.965-6.241c4.675-8.346,3.659-12.879-4.139-18.488
		c-6.298-4.529-8.646-4.147-13.336,2.167c-0.113,0.152-0.194,0.328-0.305,0.483c-4.258,5.938-6.843,12.654-9.049,19.538
		c-0.263,0.818-0.378,1.656-0.976,2.334c-5.502,6.229-11.3,12.154-18.134,17.295c0.916-3.969,1.837-7.938,2.741-11.908
		c0.19-0.841,0.491-1.551,1.116-2.223c9.622-10.34,16.627-22.388,23.06-34.868c2.815-5.465,1.666-9.811-2.078-14.029
		c-0.634-0.715-1.314-1.39-1.995-2.061c-5.737-5.663-6.906-5.612-10.78,1.371c-9.928,17.892-16.92,36.86-20.475,57.055
		c-1.093,6.21,0.156,11.665,4.646,16.31c1.679,1.734,3.111,1.938,4.787,0.211c1.996-2.057,4.086-4.032,5.962-6.194
		c3.069-3.539,5.998-7.199,9.177-11.037c0.23,8.796,1.23,11.545,6.275,15.33c4.666,3.5,9.113,4.662,13.121,0.888
		c7.389-6.959,13.091-15.068,16.999-24.431C293.278,60.045,293.854,58,293.197,55.624z M280.488,39.729
		c0.845,7.875-3.593,15.784-10.27,18.221C273.005,51.334,275.018,44.898,280.488,39.729z M261.306,17.643
		c0.699,1.398,0.567,2.7,0.141,4.052c-3.081,9.74-13.51,28.46-14.506,29.263C247.335,50.053,255.691,27.46,261.306,17.643z"/>
	<path fill="#FFFFFF" d="M7.117,27.834c-3.76-4.131-5.587-8.809-6.987-13.66c-0.647-2.242,1.269-3.082,2.834-3.829
		c4.421-2.109,9.245-2.723,14.018-3.271c11.396-1.309,22.85-1.63,34.312-1.422c2.848,0.051,5.197-0.336,7.419-2.488
		c1.589-1.539,3.771-3.995,6.101-2.886c2.472,1.176,1.987,4.361,2.053,6.858c0.037,1.43,0.03,2.879-0.164,4.291
		c-0.202,1.466-0.875,3.08-2.441,3.172c-3.173,0.187-3.945,2.4-4.954,4.74c-4.023,9.33-8.132,18.623-12.249,27.911
		c-0.82,1.849-1.184,3.452,0.87,4.789c0.604,0.393,0.984,1.171,1.388,1.821c1.953,3.146,1.639,3.852-2.124,4.047
		c-3.225,0.17-5.146,1.312-6.271,4.686c-3.215,9.638-11.267,34.591-12.867,44.722c-0.264,1.672,0.11,3.255,0.051,5.11
		c-4.059-1.241-6.766-2.77-9.521-5.789c-1.791-1.963-2.476-4.108-1.764-6.944c1.604-6.39,11.104-36.153,11.65-37.573
		c-5.761,1.129-11.819,1.521-17.119,2.785c-1.944,0.465-2.638-0.287-3.221-1.734c-0.285-0.709-0.541-1.442-0.686-2.189
		c-0.44-2.262-1.674-4.805-0.686-6.769c1.137-2.257,3.849-0.488,5.822-0.6c5.835-0.33,11.602-1.211,17.407-1.745
		c1.388-0.128,3.894-0.706,4.52-2.147c4.999-11.518,10.621-22.737,16.75-34.16c-5.322-0.364-11.697,0.776-16.607,1.393
		c-6.739,0.845-13.445,1.895-19.824,4.45C11.692,22.655,8.886,24.199,7.117,27.834z"/>
</g>
</svg>
