<?xml version="1.0" encoding="utf-8"?>
<!-- Generator: Adobe Illustrator 16.0.0, SVG Export Plug-In . SVG Version: 6.00 Build 0)  -->
<!DOCTYPE svg PUBLIC "-//W3C//DTD SVG 1.1//EN" "http://www.w3.org/Graphics/SVG/1.1/DTD/svg11.dtd">
<svg version="1.1" id="Layer_1" xmlns="http://www.w3.org/2000/svg" xmlns:xlink="http://www.w3.org/1999/xlink" x="0px" y="0px"
	 width="58.773px" height="48.295px" viewBox="0 0 58.773 48.295" enable-background="new 0 0 58.773 48.295" xml:space="preserve">
<g>
	<g>
		<g>
			<path fill="#FFFFFF" d="M29.185,36.59L10.89,18.295L29.185,0l18.294,18.295L29.185,36.59z M12.874,18.295l16.311,16.311
				l16.311-16.311L29.185,1.984L12.874,18.295z"/>
		</g>
		<g>
			<defs>
				
					<rect id="SVGID_1_" x="16.95" y="6.06" transform="matrix(0.7071 -0.7071 0.7071 0.7071 -4.3884 25.9957)" width="24.469" height="24.47"/>
			</defs>
			<clipPath id="SVGID_2_">
				<use xlink:href="#SVGID_1_"  overflow="visible"/>
			</clipPath>
			<g clip-path="url(#SVGID_2_)">
				<g>
					<path fill="#FFFFFF" d="M49.839,17.048c-2.08,0-3.109-1.394-4.018-2.623c-0.813-1.102-1.516-2.054-2.889-2.054
						c-1.372,0-2.075,0.952-2.888,2.054c-0.908,1.229-1.938,2.623-4.018,2.623s-3.108-1.394-4.016-2.624
						c-0.812-1.102-1.516-2.053-2.887-2.053s-2.074,0.952-2.888,2.053c-0.907,1.23-1.936,2.624-4.016,2.624
						c-2.08,0-3.108-1.394-4.015-2.624c-0.813-1.102-1.515-2.053-2.886-2.053c-1.372,0-2.074,0.952-2.887,2.053
						c-0.908,1.23-1.936,2.624-4.016,2.624c-2.08,0-3.108-1.394-4.016-2.624c-0.813-1.102-1.515-2.053-2.887-2.053v-1.403
						c2.08,0,3.108,1.394,4.016,2.623c0.813,1.102,1.516,2.053,2.887,2.053c1.372,0,2.074-0.951,2.887-2.053
						c0.908-1.229,1.936-2.623,4.016-2.623c2.079,0,3.108,1.394,4.015,2.623c0.813,1.102,1.515,2.053,2.886,2.053
						c1.372,0,2.074-0.951,2.888-2.053c0.907-1.229,1.936-2.623,4.016-2.623s3.108,1.394,4.016,2.623
						c0.812,1.102,1.515,2.053,2.887,2.053s2.075-0.951,2.888-2.053c0.908-1.229,1.938-2.623,4.018-2.623
						c2.081,0,3.11,1.394,4.018,2.623c0.813,1.102,1.517,2.053,2.889,2.053V17.048z"/>
				</g>
				<g>
					<path fill="#FFFFFF" d="M49.839,23.361c-2.08,0-3.109-1.394-4.018-2.623c-0.813-1.102-1.516-2.053-2.889-2.053
						c-1.372,0-2.075,0.951-2.888,2.053c-0.908,1.229-1.938,2.623-4.018,2.623s-3.108-1.394-4.016-2.623
						c-0.812-1.102-1.516-2.053-2.887-2.053s-2.074,0.951-2.888,2.053c-0.907,1.229-1.936,2.623-4.016,2.623
						c-2.08,0-3.108-1.394-4.015-2.623c-0.813-1.102-1.515-2.053-2.886-2.053c-1.372,0-2.074,0.951-2.887,2.053
						c-0.908,1.229-1.936,2.623-4.016,2.623c-2.08,0-3.108-1.394-4.016-2.623c-0.813-1.102-1.515-2.053-2.887-2.053v-1.403
						c2.08,0,3.108,1.394,4.016,2.624c0.813,1.102,1.516,2.053,2.887,2.053c1.372,0,2.074-0.952,2.887-2.054
						c0.908-1.229,1.936-2.623,4.016-2.623c2.079,0,3.108,1.394,4.015,2.624c0.813,1.102,1.515,2.053,2.886,2.053
						c1.372,0,2.074-0.952,2.888-2.053c0.907-1.229,1.936-2.624,4.016-2.624s3.108,1.394,4.016,2.624
						c0.812,1.102,1.515,2.053,2.887,2.053s2.075-0.952,2.888-2.054c0.908-1.229,1.938-2.623,4.018-2.623
						c2.081,0,3.11,1.394,4.018,2.623c0.813,1.102,1.517,2.054,2.889,2.054V23.361z"/>
				</g>
				<g>
					<path fill="#FFFFFF" d="M49.839,29.675c-2.08,0-3.109-1.394-4.018-2.623c-0.813-1.102-1.516-2.054-2.889-2.054
						c-1.372,0-2.075,0.952-2.888,2.054c-0.908,1.229-1.938,2.623-4.018,2.623s-3.108-1.394-4.016-2.623
						c-0.812-1.102-1.516-2.054-2.887-2.054s-2.074,0.952-2.888,2.054c-0.907,1.229-1.936,2.623-4.016,2.623
						c-2.08,0-3.108-1.394-4.015-2.623c-0.813-1.102-1.515-2.054-2.886-2.054c-1.372,0-2.074,0.952-2.887,2.054
						c-0.908,1.229-1.936,2.623-4.016,2.623c-2.08,0-3.108-1.394-4.016-2.623c-0.813-1.102-1.515-2.054-2.887-2.054v-1.403
						c2.08,0,3.108,1.394,4.016,2.624c0.813,1.102,1.516,2.053,2.887,2.053c1.372,0,2.074-0.952,2.887-2.054
						c0.908-1.229,1.936-2.623,4.016-2.623c2.079,0,3.108,1.394,4.015,2.624c0.813,1.102,1.515,2.053,2.886,2.053
						c1.372,0,2.074-0.952,2.888-2.053c0.907-1.23,1.936-2.624,4.016-2.624s3.108,1.394,4.016,2.624
						c0.812,1.102,1.515,2.053,2.887,2.053s2.075-0.952,2.888-2.054c0.908-1.229,1.938-2.623,4.018-2.623
						c2.081,0,3.11,1.394,4.018,2.623c0.813,1.102,1.517,2.054,2.889,2.054V29.675z"/>
				</g>
			</g>
		</g>
	</g>
	<g>
		<g>
			<circle fill="#FFFFFF" cx="55.96" cy="44.229" r="1.567"/>
		</g>
		<g>
			<circle fill="#FFFFFF" cx="2.408" cy="44.229" r="1.567"/>
		</g>
	</g>
	<g>
		<path fill="#FFFFFF" d="M7.886,46.487v-4.389h3.158v0.797H8.714v1.2h2.204v0.766H8.714v1.626H7.886z"/>
		<path fill="#FFFFFF" d="M16.396,46.487H15.41l-1.281-1.47h-0.797v1.47h-0.829v-4.401c0.697,0,1.394,0.006,2.091,0.006
			c1.036,0.006,1.582,0.697,1.582,1.457c0,0.603-0.276,1.211-1.111,1.381l1.331,1.501V46.487z M13.332,42.864v1.406h1.262
			c0.527,0,0.753-0.352,0.753-0.703s-0.232-0.703-0.753-0.703H13.332z"/>
		<path fill="#FFFFFF" d="M20.894,46.487h-3.29c0-1.463,0-2.933,0-4.396h3.29v0.804h-2.467v1.011h2.379v0.772h-2.379v0.992h2.467
			V46.487z"/>
		<path fill="#FFFFFF" d="M25.819,46.487h-3.291c0-1.463,0-2.933,0-4.396h3.291v0.804h-2.468v1.011h2.379v0.772h-2.379v0.992h2.468
			V46.487z"/>
		<path fill="#FFFFFF" d="M30.186,43.152c-0.15-0.251-0.565-0.49-1.042-0.49c-0.615,0-0.91,0.258-0.91,0.584
			c0,0.383,0.451,0.49,0.979,0.552c0.916,0.113,1.77,0.352,1.77,1.4c0,0.979-0.866,1.4-1.846,1.4c-0.897,0-1.589-0.276-1.915-1.08
			l0.69-0.358c0.195,0.484,0.704,0.697,1.237,0.697c0.521,0,1.011-0.182,1.011-0.659c0-0.415-0.433-0.584-1.017-0.647
			c-0.898-0.107-1.728-0.345-1.728-1.331c0-0.904,0.892-1.274,1.702-1.281c0.685,0,1.394,0.194,1.727,0.873L30.186,43.152z"/>
		<path fill="#FFFFFF" d="M33.642,42.845h-1.395v-0.754c1.269,0,2.342,0,3.616,0v0.754H34.47v3.642h-0.828V42.845z"/>
		<path fill="#FFFFFF" d="M39.112,43.906l1.168-1.815h0.998v0.038l-1.752,2.542v1.815h-0.828v-1.815l-1.688-2.542v-0.038h0.985
			L39.112,43.906z"/>
		<path fill="#FFFFFF" d="M43.354,42.091v3.629h2.26v0.766h-3.089v-4.396H43.354z"/>
		<path fill="#FFFFFF" d="M50.482,46.487h-3.29c0-1.463,0-2.933,0-4.396h3.29v0.804h-2.468v1.011h2.38v0.772h-2.38v0.992h2.468
			V46.487z"/>
	</g>
</g>
</svg>
