<?xml version="1.0" encoding="utf-8"?>
<!-- Generator: Adobe Illustrator 16.0.0, SVG Export Plug-In . SVG Version: 6.00 Build 0)  -->
<!DOCTYPE svg PUBLIC "-//W3C//DTD SVG 1.1//EN" "http://www.w3.org/Graphics/SVG/1.1/DTD/svg11.dtd">
<svg version="1.1" id="Layer_1" xmlns="http://www.w3.org/2000/svg" xmlns:xlink="http://www.w3.org/1999/xlink" x="0px" y="0px"
	 width="2277.998px" height="404.644px" viewBox="0 190.022 2277.998 404.644" enable-background="new 0 190.022 2277.998 404.644"
	 xml:space="preserve">
<path fill="#4FD3D3" d="M2265.98,241.538c-27.392,0-49.625-22.026-49.993-49.332h-0.033c-0.358,27.306-22.594,49.332-49.983,49.332
	c-27.389,0-49.625-22.026-49.981-49.332h-0.033c-0.355,27.306-22.592,49.332-49.98,49.332c-27.39,0-49.625-22.026-49.982-49.332
	h-0.033c-0.356,27.306-22.593,49.332-49.981,49.332s-49.625-22.026-49.98-49.332h-0.031c-0.358,27.306-22.593,49.332-49.983,49.332
	c-27.388,0-49.625-22.026-49.98-49.332h-0.031c-0.358,27.306-22.593,49.332-49.983,49.332c-27.388,0-49.625-22.026-49.979-49.332
	h-0.033c-0.358,27.306-22.591,49.332-49.983,49.332c-27.388,0-49.625-22.026-49.979-49.332h-0.033
	c-0.358,27.306-22.591,49.332-49.983,49.332c-27.388,0-49.625-22.026-49.979-49.332h-0.033
	c-0.358,27.306-22.591,49.332-49.983,49.332c-27.388,0-49.625-22.026-49.979-49.332h-0.033
	c-0.356,27.306-22.591,49.332-49.981,49.332c-27.39,0-49.625-22.026-49.98-49.332h-0.033c-0.356,27.306-22.591,49.332-49.981,49.332
	c-27.39,0-49.625-22.026-49.98-49.332h-0.033c-0.356,27.306-22.591,49.332-49.981,49.332c-27.39,0-49.644-22.026-49.997-49.332
	l-0.716,9.072c-4.844,22.949-26.45,40.26-52.401,40.26c-29.276,0-53.044-22.026-53.426-49.332h-0.035
	c-0.384,27.306-24.15,49.332-53.428,49.332c-29.275,0-53.043-22.026-53.426-49.332h-0.036
	c-0.383,27.306-24.147,49.332-53.428,49.332c-29.272,0-53.043-22.026-53.423-49.332h-0.036
	c-0.383,27.306-24.146,49.332-53.427,49.332c-29.272,0-53.043-22.026-53.424-49.332h-0.035
	c-0.383,27.306-24.146,49.332-53.427,49.332c-29.274,0-53.044-22.026-53.423-49.332h-0.036
	c-0.383,27.306-24.147,49.332-53.427,49.332c-29.274,0-53.043-22.026-53.425-49.332H475c-0.384,27.306-24.146,49.332-53.428,49.332
	c-29.273,0-53.044-22.026-53.424-49.332h-0.035c-0.383,27.306-24.146,49.332-53.428,49.332c-29.273,0-53.042-22.026-53.424-49.332
	h-0.035c-0.383,27.306-24.147,49.332-53.427,49.332c-29.274,0-53.044-22.026-53.424-49.332h-0.035
	c-0.383,27.306-24.147,49.332-53.427,49.332c-29.274,0-53.044-22.026-53.424-49.332h-0.035C47.09,217.624,26.468,238.458,0,241.219
	v353.447h145.047h969.014h1163.938V328.327v-63.328v-24.923C2274.146,241.027,2270.125,241.538,2265.98,241.538z"/>
</svg>
