<?xml version="1.0" encoding="utf-8"?>
<!-- Generator: Adobe Illustrator 16.0.0, SVG Export Plug-In . SVG Version: 6.00 Build 0)  -->
<!DOCTYPE svg PUBLIC "-//W3C//DTD SVG 1.1//EN" "http://www.w3.org/Graphics/SVG/1.1/DTD/svg11.dtd">
<svg version="1.1" id="Layer_1" xmlns="http://www.w3.org/2000/svg" xmlns:xlink="http://www.w3.org/1999/xlink" x="0px" y="0px"
	 width="1200px" height="391.48px" viewBox="0 0 1200 391.48" enable-background="new 0 0 1200 391.48" xml:space="preserve">
<path fill="#1E9BA8" d="M50,124.096c27.391,0,49.625-22.028,49.983-49.334h0.033c0.358,27.306,22.593,49.334,49.983,49.334
	s49.625-22.028,49.983-49.334h0.033c0.358,27.306,22.593,49.334,49.983,49.334s49.625-22.028,49.983-49.334h0.033
	c0.358,27.306,22.593,49.334,49.983,49.334s49.625-22.028,49.983-49.334h0.033c0.358,27.306,22.593,49.334,49.983,49.334
	s49.625-22.028,49.983-49.334h0.033c0.358,27.306,22.593,49.334,49.983,49.334s49.625-22.028,49.983-49.334h0.033
	c0.358,27.306,22.593,49.334,49.983,49.334s49.625-22.028,49.983-49.334h0.033c0.358,27.306,22.593,49.334,49.983,49.334
	s49.625-22.028,49.983-49.334h0.033c0.358,27.306,22.593,49.334,49.983,49.334s49.625-22.028,49.983-49.334h0.033
	c0.358,27.306,22.593,49.334,49.983,49.334s49.625-22.028,49.983-49.334h0.033c0.358,27.306,22.593,49.334,49.983,49.334
	s49.625-22.028,49.983-49.334h0.033c0.358,27.306,22.593,49.334,49.983,49.334s49.625-22.028,49.983-49.334H1200V49.833
	c-20.353-7.192-34.992-26.471-35.29-49.217h-0.035c-0.38,28.911-23.922,52.235-52.923,52.235c-29.002,0-52.544-23.324-52.924-52.235
	h-0.035c-0.379,28.911-23.921,52.235-52.923,52.235c-29.001,0-52.543-23.324-52.923-52.235h-0.035
	c-0.379,28.911-23.921,52.235-52.923,52.235c-29.001,0-52.543-23.324-52.923-52.235h-0.035
	c-0.38,28.911-23.922,52.235-52.923,52.235c-29.002,0-52.544-23.324-52.923-52.235h-0.035c-0.38,28.911-23.922,52.235-52.923,52.235
	c-29.002,0-52.544-23.324-52.923-52.235h-0.035c-0.38,28.911-23.922,52.235-52.923,52.235s-52.543-23.324-52.923-52.235h-0.035
	c-0.379,28.911-23.921,52.235-52.923,52.235s-52.543-23.324-52.923-52.235h-0.035c-0.379,28.911-23.921,52.235-52.923,52.235
	s-52.543-23.324-52.923-52.235h-0.035c-0.38,28.911-23.922,52.235-52.923,52.235S212.159,29.527,211.78,0.616h-0.035
	c-0.379,28.911-23.921,52.235-52.923,52.235s-52.543-23.324-52.923-52.235h-0.035c-0.379,28.911-23.921,52.235-52.923,52.235
	S0.397,29.527,0.018,0.616H0v66.155v7.991h0.017C0.375,102.068,22.609,124.096,50,124.096z"/>
<path fill="#1F8191" d="M51.065,206.581c27.974,0,50.682-22.498,51.048-50.385h0.034c0.366,27.887,23.074,50.385,51.048,50.385
	s50.682-22.498,51.048-50.385h0.034c0.366,27.887,23.074,50.385,51.048,50.385c27.974,0,50.682-22.498,51.048-50.385h0.034
	c0.366,27.887,23.074,50.385,51.048,50.385c27.974,0,50.682-22.498,51.048-50.385h0.034c0.366,27.887,23.074,50.385,51.048,50.385
	s50.682-22.498,51.048-50.385h0.034c0.366,27.887,23.074,50.385,51.048,50.385s50.682-22.498,51.048-50.385h0.034
	c0.366,27.887,23.074,50.385,51.048,50.385s50.682-22.498,51.048-50.385h0.034c0.366,27.887,23.074,50.385,51.048,50.385
	c27.975,0,50.682-22.498,51.048-50.385h0.034c0.366,27.887,23.074,50.385,51.048,50.385c27.975,0,50.683-22.498,51.048-50.385h0.034
	c0.366,27.887,23.074,50.385,51.048,50.385c27.975,0,50.683-22.498,51.048-50.385h0.034c0.366,27.887,23.074,50.385,51.048,50.385
	c27.975,0,50.683-22.498,51.048-50.385h0.034c0.366,27.887,23.074,50.385,51.048,50.385c9.295,0,18-2.495,25.506-6.835V68.762
	h-0.017c-0.358,27.306-22.593,49.334-49.983,49.334s-49.625-22.028-49.983-49.334h-0.033c-0.358,27.306-22.593,49.334-49.983,49.334
	s-49.625-22.028-49.983-49.334h-0.033c-0.358,27.306-22.593,49.334-49.983,49.334s-49.625-22.028-49.983-49.334h-0.033
	c-0.358,27.306-22.593,49.334-49.983,49.334s-49.625-22.028-49.983-49.334h-0.033c-0.358,27.306-22.593,49.334-49.983,49.334
	s-49.625-22.028-49.983-49.334h-0.033c-0.358,27.306-22.593,49.334-49.983,49.334s-49.625-22.028-49.983-49.334h-0.033
	c-0.358,27.306-22.593,49.334-49.983,49.334s-49.625-22.028-49.983-49.334h-0.033c-0.358,27.306-22.593,49.334-49.983,49.334
	s-49.625-22.028-49.983-49.334h-0.033c-0.358,27.306-22.593,49.334-49.983,49.334s-49.625-22.028-49.983-49.334h-0.033
	c-0.358,27.306-22.593,49.334-49.983,49.334s-49.625-22.028-49.983-49.334h-0.033c-0.358,27.306-22.593,49.334-49.983,49.334
	s-49.625-22.028-49.983-49.334h-0.033C99.625,96.068,77.391,118.096,50,118.096S0.375,96.068,0.017,68.762H0v22.742v45.325v19.367
	h0.017C0.383,184.083,23.091,206.581,51.065,206.581z"/>
<path fill="#0F6C82" d="M1200,266.988v-76.242c-7.506,4.339-16.211,6.834-25.506,6.834c-27.974,0-50.682-22.498-51.048-50.385
	h-0.034c-0.365,27.887-23.073,50.385-51.048,50.385c-27.974,0-50.682-22.498-51.048-50.385h-0.034
	c-0.365,27.887-23.073,50.385-51.048,50.385c-27.974,0-50.682-22.498-51.048-50.385h-0.034
	c-0.365,27.887-23.073,50.385-51.048,50.385c-27.974,0-50.682-22.498-51.048-50.385h-0.034
	c-0.366,27.887-23.073,50.385-51.048,50.385c-27.974,0-50.682-22.498-51.048-50.385h-0.034
	c-0.366,27.887-23.074,50.385-51.048,50.385s-50.682-22.498-51.048-50.385h-0.034c-0.366,27.887-23.074,50.385-51.048,50.385
	s-50.682-22.498-51.048-50.385h-0.034c-0.366,27.887-23.074,50.385-51.048,50.385s-50.682-22.498-51.048-50.385h-0.034
	c-0.366,27.887-23.074,50.385-51.048,50.385c-27.974,0-50.682-22.498-51.048-50.385h-0.034
	c-0.366,27.887-23.074,50.385-51.048,50.385c-27.974,0-50.682-22.498-51.048-50.385h-0.034
	c-0.366,27.887-23.074,50.385-51.048,50.385s-50.682-22.498-51.048-50.385h-0.034c-0.366,27.887-23.074,50.385-51.048,50.385
	S0.383,175.083,0.017,147.196H0v36.886v56.708v45.051h0v108.64h1200L1200,266.988L1200,266.988z"/>
</svg>
