<?xml version="1.0" encoding="utf-8"?>
<!-- Generator: Adobe Illustrator 16.0.0, SVG Export Plug-In . SVG Version: 6.00 Build 0)  -->
<!DOCTYPE svg PUBLIC "-//W3C//DTD SVG 1.1//EN" "http://www.w3.org/Graphics/SVG/1.1/DTD/svg11.dtd">
<svg version="1.1" id="Layer_1" xmlns="http://www.w3.org/2000/svg" xmlns:xlink="http://www.w3.org/1999/xlink" x="0px" y="0px"
	 width="2277.998px" height="404.644px" viewBox="0 0 2277.998 404.644" enable-background="new 0 0 2277.998 404.644"
	 xml:space="preserve">
<path fill="#27B9C1" d="M2264.727,240.408c-28.481,0-51.604-22.498-51.979-50.386h-0.034c-0.373,27.888-23.495,50.386-51.978,50.386
	c-28.484,0-51.605-22.498-51.979-50.386h-0.032c-0.373,27.888-23.496,50.386-51.979,50.386c-28.48,0-51.604-22.498-51.979-50.386
	h-0.033c-0.37,27.888-23.492,50.386-51.979,50.386s-51.604-22.498-51.979-50.386h-0.034c-0.371,27.888-23.493,50.386-51.979,50.386
	c-28.479,0-51.604-22.498-51.978-50.386h-0.035c-0.372,27.888-23.493,50.386-51.979,50.386c-28.48,0-51.604-22.498-51.978-50.386
	h-0.035c-0.372,27.888-23.493,50.386-51.979,50.386c-28.484,0-51.604-22.498-51.979-50.386h-0.034
	c-0.372,27.888-23.493,50.386-51.978,50.386c-28.485,0-51.606-22.498-51.979-50.386h-0.034
	c-0.373,27.888-23.494,50.386-51.978,50.386c-28.486,0-51.608-22.498-51.979-50.386h-0.035
	c-0.37,27.888-23.493,50.386-51.978,50.386c-28.485,0-51.607-22.498-51.979-50.386h-0.034
	c-0.373,27.888-23.492,50.386-51.979,50.386s-51.608-22.498-51.979-50.386h-0.034c-0.373,27.888-23.496,50.757-51.979,50.386
	c-28.848-0.376-44.205-35.031-44.411-50.386h-0.034c-0.373,27.888-23.494,50.386-51.979,50.386
	c-28.482,0-51.605-22.498-51.979-50.386h-0.031c-0.373,27.888-23.495,50.386-51.979,50.386s-51.604-22.498-51.978-50.386h-0.035
	c-0.37,27.888-23.492,50.386-51.979,50.386c-28.481,0-51.604-22.498-51.979-50.386H764.4c-0.372,27.888-23.493,50.386-51.979,50.386
	c-28.48,0-51.604-22.498-51.978-50.386h-0.035c-0.372,27.888-23.494,50.386-51.979,50.386c-28.481,0-51.604-22.498-51.979-50.386
	h-0.034c-0.372,27.888-23.494,50.386-51.979,50.386c-28.485,0-51.604-22.498-51.979-50.386h-0.032
	c-0.372,27.888-23.494,50.386-51.979,50.386c-28.485,0-51.604-22.498-51.979-50.386h-0.035
	c-0.372,27.888-23.492,50.386-51.979,50.386c-28.485,0-51.607-22.498-51.978-50.386h-0.035
	c-0.373,27.888-23.494,50.386-51.978,50.386c-28.486,0-51.608-22.498-51.979-50.386h-0.034
	c-0.373,27.888-23.495,50.386-51.978,50.386c-28.486,0-51.608-22.498-51.979-50.386H36.46C36.177,212.623,20.931,231.68,0,238.093
	V371.24v223.426h2277.998v-216.89v-64.047V238.72C2273.761,239.815,2269.314,240.408,2264.727,240.408z"/>
</svg>
