<?xml version="1.0" encoding="utf-8"?>
<!-- Generator: Adobe Illustrator 16.0.0, SVG Export Plug-In . SVG Version: 6.00 Build 0)  -->
<!DOCTYPE svg PUBLIC "-//W3C//DTD SVG 1.1//EN" "http://www.w3.org/Graphics/SVG/1.1/DTD/svg11.dtd">
<svg version="1.1" id="Layer_1" xmlns="http://www.w3.org/2000/svg" xmlns:xlink="http://www.w3.org/1999/xlink" x="0px" y="0px"
	 width="2277.998px" height="932.332px" viewBox="0 0 2277.998 932.332" enable-background="new 0 0 2277.998 932.332"
	 xml:space="preserve">
<path fill="#C5EFEB" d="M2213.01,2h-0.031h-0.002h-99.973h-0.033h-99.974h-0.033h-99.973h-0.033h-99.973h-0.033h-99.976h-0.031
	h-99.976h-0.03h-99.977h-0.032h-99.974h-0.032h-99.974h-0.033h-99.975h-0.033h-96.912h-64.987h-0.033h-99.973h-0.033h-99.975h-0.032
	h-99.974h-0.033h-99.973h-0.033h-99.976h-0.031H450.97h-0.03h-99.977h-0.032h-99.973h-0.033h-99.973h-0.033H50.945h-0.033H0v118.588
	h1115.999h1161.999V2H2213.01z M1115.999,99.478v-0.533C1116.489,99.131,1116.247,99.308,1115.999,99.478z"/>
<path fill="#89E0DC" d="M2263.255,88.678c-28.621,0-51.854-23.323-52.229-52.233h-0.034c-0.375,28.91-23.606,52.233-52.229,52.233
	s-51.854-23.323-52.229-52.233h-0.034c-0.375,28.91-23.607,52.233-52.229,52.233s-51.854-23.323-52.229-52.233h-0.034
	c-0.375,28.91-23.606,52.233-52.229,52.233s-51.854-23.323-52.231-52.233h-0.032c-0.374,28.91-23.605,52.233-52.229,52.233
	c-28.621,0-51.854-23.323-52.229-52.233h-0.034c-0.375,28.91-23.607,52.233-52.229,52.233s-51.854-23.323-52.229-52.233h-0.034
	c-0.375,28.91-23.607,52.233-52.229,52.233s-51.854-23.323-52.229-52.233h-0.035c-0.373,28.91-23.606,52.233-52.229,52.233
	c-28.62,0-51.854-23.323-52.229-52.233h-0.034c-0.375,28.91-23.608,52.233-52.229,52.233s-51.854-23.323-52.229-52.233h-0.035
	c-0.375,28.91-23.607,52.233-52.229,52.233s-51.854-23.323-52.229-52.233h-0.035c-0.374,28.91-23.607,52.233-52.229,52.233
	c-28.62,0-51.854-23.323-52.229-52.233h-0.035c-0.294,22.746-14.739,42.024-34.826,49.217v0.867
	c-4.678,1.393-9.622,2.149-14.743,2.149c-28.621,0-51.854-23.323-52.229-52.233h-0.035c-0.375,28.91-23.607,52.233-52.229,52.233
	c-28.622,0-51.854-23.323-52.229-52.233h-0.034c-0.375,28.91-23.605,52.233-52.228,52.233c-28.62,0-51.854-23.323-52.229-52.233
	h-0.033c-0.375,28.91-23.606,52.233-52.229,52.233c-28.621,0-51.854-23.323-52.231-52.233h-0.03
	c-0.375,28.91-23.607,52.233-52.231,52.233c-28.621,0-51.854-23.323-52.228-52.233h-0.035c-0.375,28.91-23.607,52.233-52.229,52.233
	c-28.62,0-51.854-23.323-52.229-52.233h-0.034c-0.374,28.91-23.606,52.233-52.229,52.233c-28.619,0-51.853-23.323-52.228-52.233
	h-0.035c-0.374,28.91-23.606,52.233-52.229,52.233c-28.62,0-51.854-23.323-52.229-52.233h-0.034
	c-0.375,28.91-23.607,52.233-52.229,52.233s-51.854-23.323-52.228-52.233H228.3c-0.375,28.91-5.844,52.233-34.465,52.233
	s-51.854-23.323-52.229-52.233h-3.981c-0.375,28.91-19.661,52.233-48.282,52.233c-28.62,0-51.854-23.323-52.229-52.233h-3.981
	C32.839,59.19,22.34,78.469,2.253,85.661L0,88.838v136.89h690.359h440.891h1146.748v-67.264v-50.467v-21.47
	C2273.321,87.92,2268.376,88.678,2263.255,88.678z"/>
<path fill="#4FD3D3" d="M2265.98,155.922c-27.391,0-49.625-22.026-49.993-49.332h-0.033c-0.358,27.306-22.594,49.332-49.983,49.332
	c-27.389,0-49.625-22.026-49.982-49.332h-0.033c-0.356,27.306-22.592,49.332-49.981,49.332s-49.625-22.026-49.982-49.332h-0.033
	c-0.357,27.306-22.593,49.332-49.982,49.332c-27.388,0-49.625-22.026-49.98-49.332h-0.032
	c-0.358,27.306-22.592,49.332-49.983,49.332c-27.388,0-49.625-22.026-49.98-49.332h-0.032
	c-0.358,27.306-22.592,49.332-49.983,49.332c-27.388,0-49.625-22.026-49.979-49.332h-0.033
	c-0.358,27.306-22.591,49.332-49.983,49.332c-27.388,0-49.625-22.026-49.979-49.332h-0.033
	c-0.358,27.306-22.591,49.332-49.983,49.332c-27.388,0-49.625-22.026-49.979-49.332h-0.033
	c-0.358,27.306-22.591,49.332-49.983,49.332c-27.388,0-49.625-22.026-49.979-49.332h-0.033
	c-0.357,27.306-22.591,49.332-49.982,49.332c-27.389,0-49.625-22.026-49.98-49.332h-0.033
	c-0.357,27.306-22.591,49.332-49.982,49.332c-27.389,0-49.625-22.026-49.98-49.332h-0.033
	c-0.357,27.306-22.591,49.332-49.982,49.332c-27.389,0-49.643-22.026-49.997-49.332l-0.716,9.072
	c-4.844,22.949-26.45,40.26-52.401,40.26c-29.276,0-53.044-22.026-53.426-49.332h-0.035c-0.384,27.306-24.15,49.332-53.428,49.332
	c-29.275,0-53.043-22.026-53.426-49.332h-0.036c-0.383,27.306-24.147,49.332-53.427,49.332c-29.273,0-53.043-22.026-53.423-49.332
	h-0.036c-0.383,27.306-24.146,49.332-53.427,49.332c-29.273,0-53.043-22.026-53.424-49.332h-0.035
	c-0.383,27.306-24.146,49.332-53.427,49.332c-29.274,0-53.044-22.026-53.423-49.332h-0.036
	c-0.383,27.306-24.147,49.332-53.427,49.332c-29.274,0-53.043-22.026-53.424-49.332H475c-0.384,27.306-24.146,49.332-53.428,49.332
	c-29.273,0-53.044-22.026-53.424-49.332h-0.035c-0.383,27.306-24.146,49.332-53.427,49.332c-29.274,0-53.043-22.026-53.424-49.332
	h-0.035c-0.383,27.306-24.147,49.332-53.427,49.332c-29.274,0-53.044-22.026-53.424-49.332h-0.035
	c-0.383,27.306-24.147,49.332-53.427,49.332c-29.274,0-53.044-22.026-53.424-49.332h-0.035C47.09,132.008,26.468,152.843,0,155.603
	v158.125h145.047h969.014h1163.938v-71.017v-63.328V154.46C2274.146,155.411,2270.125,155.922,2265.98,155.922z"/>
<path fill="#27B9C1" d="M2264.727,240.407c-28.483,0-51.605-22.498-51.979-50.385h-0.034c-0.373,27.887-23.495,50.385-51.978,50.385
	c-28.484,0-51.605-22.498-51.979-50.385h-0.033c-0.373,27.887-23.496,50.385-51.979,50.385c-28.481,0-51.604-22.498-51.978-50.385
	h-0.034c-0.37,27.887-23.492,50.385-51.978,50.385s-51.605-22.498-51.979-50.385h-0.034c-0.371,27.887-23.493,50.385-51.979,50.385
	c-28.481,0-51.604-22.498-51.978-50.385h-0.035c-0.372,27.887-23.493,50.385-51.979,50.385c-28.482,0-51.604-22.498-51.978-50.385
	h-0.035c-0.372,27.887-23.493,50.385-51.979,50.385c-28.484,0-51.604-22.498-51.979-50.385h-0.034
	c-0.372,27.887-23.493,50.385-51.978,50.385c-28.485,0-51.606-22.498-51.979-50.385h-0.034
	c-0.373,27.887-23.494,50.385-51.978,50.385c-28.486,0-51.608-22.498-51.979-50.385h-0.035
	c-0.371,27.887-23.494,50.385-51.978,50.385c-28.485,0-51.607-22.498-51.979-50.385h-0.034
	c-0.373,27.887-23.494,50.385-51.979,50.385c-28.486,0-51.608-22.498-51.979-50.385h-0.034
	c-0.373,27.887-23.494,50.385-51.979,50.385c-9.465,0-18.354-2.494-25.998-6.834v-5.254c-11.097-9.231-18.207-22.942-18.413-38.297
	h-0.034c-0.373,27.887-23.494,50.385-51.979,50.385c-28.482,0-51.605-22.498-51.979-50.385h-0.033
	c-0.373,27.887-23.495,50.385-51.979,50.385s-51.604-22.498-51.978-50.385h-0.035c-0.37,27.887-23.492,50.385-51.979,50.385
	c-28.483,0-51.604-22.498-51.979-50.385h-0.034c-0.372,27.887-23.493,50.385-51.979,50.385c-28.482,0-51.604-22.498-51.978-50.385
	h-0.035c-0.372,27.887-23.494,50.385-51.979,50.385c-28.482,0-51.604-22.498-51.979-50.385h-0.034
	c-0.372,27.887-23.494,50.385-51.979,50.385c-28.485,0-51.604-22.498-51.979-50.385h-0.033
	c-0.372,27.887-23.494,50.385-51.979,50.385s-51.604-22.498-51.978-50.385h-0.035c-0.372,27.887-23.493,50.385-51.979,50.385
	c-28.485,0-51.607-22.498-51.978-50.385h-0.035c-0.373,27.887-23.494,50.385-51.978,50.385c-28.486,0-51.608-22.498-51.979-50.385
	h-0.034c-0.373,27.887-23.495,50.385-51.978,50.385c-28.486,0-51.608-22.498-51.979-50.385h-0.033
	C36.177,212.623,20.931,231.68,0,238.094V371.24v67.52h2277.998v-60.984v-64.047V238.72
	C2273.761,239.815,2269.314,240.407,2264.727,240.407z"/>
<path fill="#1E9BA8" d="M2260.495,337.579c-30.404,0-55.086-24.451-55.481-54.764h-0.037c-0.398,30.312-25.08,54.764-55.484,54.764
	c-30.405,0-55.086-24.451-55.484-54.764h-0.037c-0.396,30.312-25.077,54.764-55.483,54.764c-30.404,0-55.085-24.451-55.483-54.764
	h-0.037c-0.396,30.312-25.078,54.764-55.48,54.764c-30.405,0-55.086-24.451-55.484-54.764h-0.053
	c-0.396,30.312-25.079,54.764-55.482,54.764s-55.087-24.451-55.482-54.764h-0.037c-0.396,30.312-25.078,54.764-55.483,54.764
	c-30.402,0-55.086-24.451-55.48-54.764h-0.036c-0.398,30.312-25.079,54.764-55.484,54.764c-30.401,0-55.085-24.451-55.479-54.764
	h-0.037c-0.397,30.312-25.079,54.764-55.483,54.764s-55.086-24.451-55.48-54.764h-0.037c-0.397,30.312-25.078,54.764-55.483,54.764
	c-30.403,0-55.086-24.451-55.482-54.764h-0.034c-0.398,30.312-25.079,54.764-55.484,54.764c-30.404,0-55.086-24.451-55.482-54.764
	h-0.035c-0.396,30.312-25.078,54.764-55.482,54.764c-13.023,0-24.988-4.494-34.453-12.008l-0.716,3.688
	c-16.349-9.668-27.308-26.822-27.577-46.443h-0.039c-0.418,30.312-26.326,54.764-58.245,54.764
	c-31.918,0-57.827-24.451-58.245-54.764h-0.037c-0.418,30.312-26.328,54.764-58.245,54.764c-31.918,0-57.827-24.451-58.246-54.764
	h-0.038c-0.415,30.312-26.327,54.764-58.243,54.764c-31.918,0-57.826-24.451-58.245-54.764h-0.056
	c-0.416,30.312-26.326,54.764-58.243,54.764s-57.828-24.451-58.244-54.764h-0.039c-0.416,30.312-26.326,54.764-58.244,54.764
	c-31.916,0-57.827-24.451-58.242-54.764h-0.037c-0.418,30.312-26.327,54.764-58.245,54.764c-31.915,0-57.826-24.451-58.241-54.764
	H388.5c-0.418,30.312-26.327,54.764-58.244,54.764c-31.918,0-57.828-24.451-58.243-54.764h-0.038
	c-0.418,30.312-26.326,54.764-58.245,54.764c-31.917,0-57.827-24.451-58.244-54.764h-0.036
	c-0.418,30.312-26.327,54.764-58.245,54.764c-31.917,0-57.827-24.451-58.244-54.764h-0.037C38.585,306.69,22.437,326.918,0,334.438
	v585.268h958.983h156.3h0.716h180.238h981.761V334.745C2272.493,336.574,2266.613,337.579,2260.495,337.579z"/>
</svg>
