<?xml version="1.0" encoding="utf-8"?>
<!-- Generator: Adobe Illustrator 16.0.0, SVG Export Plug-In . SVG Version: 6.00 Build 0)  -->
<!DOCTYPE svg PUBLIC "-//W3C//DTD SVG 1.1//EN" "http://www.w3.org/Graphics/SVG/1.1/DTD/svg11.dtd">
<svg version="1.1" id="Layer_1" xmlns="http://www.w3.org/2000/svg" xmlns:xlink="http://www.w3.org/1999/xlink" x="0px" y="0px"
	 width="2277.998px" height="439.851px" viewBox="0 0 2277.998 439.851" enable-background="new 0 0 2277.998 439.851"
	 xml:space="preserve">
<path fill="#1E9BA8" d="M2260.495,337.58c-30.404,0-55.086-24.451-55.481-54.765h-0.037c-0.396,30.312-25.08,54.765-55.482,54.765
	c-30.405,0-55.086-24.451-55.482-54.765h-0.037c-0.396,30.312-25.077,54.765-55.483,54.765c-30.404,0-55.085-24.451-55.483-54.765
	h-0.037c-0.396,30.312-25.078,54.765-55.479,54.765c-30.405,0-55.086-24.451-55.484-54.765h-0.053
	c-0.396,30.312-25.079,54.765-55.482,54.765c-30.401,0-55.087-24.451-55.48-54.765h-0.037
	c-0.396,30.312-25.078,54.765-55.483,54.765c-30.4,0-55.086-24.451-55.479-54.765h-0.036c-0.398,30.312-25.079,54.765-55.484,54.765
	c-30.399,0-55.085-24.451-55.479-54.765h-0.037c-0.396,30.312-25.079,54.765-55.483,54.765c-30.403,0-55.086-24.451-55.479-54.765
	h-0.037c-0.397,30.312-25.078,54.765-55.483,54.765c-30.401,0-55.086-24.451-55.48-54.765h-0.034
	c-0.397,30.312-25.079,54.765-55.484,54.765c-30.403,0-55.086-24.451-55.481-54.765h-0.034
	c-0.396,30.312-25.08,55.118-55.482,54.765c-34.729-0.404-62.477-35.143-62.746-54.764h-0.038
	c-0.418,30.312-26.326,54.764-58.245,54.764c-31.918,0-57.826-24.451-58.244-54.764h-0.037
	c-0.418,30.312-26.328,54.764-58.245,54.764c-31.918,0-57.827-24.451-58.246-54.764h-0.038
	c-0.415,30.312-26.327,54.764-58.243,54.764c-31.918,0-57.825-24.451-58.244-54.764h-0.057
	c-0.416,30.312-26.326,54.764-58.243,54.764s-57.828-24.451-58.244-54.764h-0.038c-0.416,30.312-26.326,54.764-58.244,54.764
	c-31.916,0-57.826-24.451-58.241-54.764h-0.037c-0.418,30.312-26.327,54.764-58.245,54.764c-31.915,0-57.826-24.451-58.241-54.764
	h-0.05c-0.418,30.312-26.327,54.764-58.244,54.764c-31.918,0-57.828-24.451-58.243-54.764h-0.038
	c-0.418,30.312-26.326,54.764-58.245,54.764c-31.917,0-57.827-24.451-58.244-54.764h-0.036
	c-0.418,30.312-26.327,54.764-58.245,54.764c-31.917,0-57.827-24.451-58.244-54.764h-0.037C38.585,306.69,22.437,326.917,0,334.438
	v388.228h958.983h156.3h0.716h180.238h981.761v-387.92C2272.493,336.574,2266.613,337.58,2260.495,337.58z"/>
</svg>
