<?xml version="1.0" encoding="utf-8"?>
<!-- Generator: Adobe Illustrator 16.0.0, SVG Export Plug-In . SVG Version: 6.00 Build 0)  -->
<!DOCTYPE svg PUBLIC "-//W3C//DTD SVG 1.1//EN" "http://www.w3.org/Graphics/SVG/1.1/DTD/svg11.dtd">
<svg version="1.1" id="Layer_1" xmlns="http://www.w3.org/2000/svg" xmlns:xlink="http://www.w3.org/1999/xlink" x="0px" y="0px"
	 width="2277.998px" height="404.644px" viewBox="0 190.022 2277.998 404.644" enable-background="new 0 190.022 2277.998 404.644"
	 xml:space="preserve">
<path fill="#C5EFEB" d="M2213.01,190.022h-0.031h-0.002h-99.973h-0.033h-99.974h-0.033h-99.973h-0.033h-99.973h-0.033h-99.976
	h-0.031h-99.976h-0.03h-99.978h-0.031h-99.975h-0.032h-99.974h-0.033h-99.975h-0.033h-96.912h-64.986h-0.033h-99.973h-0.033h-99.976
	h-0.031H750.99h-0.033h-99.973h-0.033h-99.976h-0.031H450.97h-0.029h-99.978h-0.032h-99.973h-0.033h-99.973h-0.033H50.945h-0.033H0
	v404.644h1115.999h1161.999V190.022H2213.01z M1115.999,522.635v-1.818C1116.489,521.451,1116.247,522.056,1115.999,522.635z"/>
</svg>
