<?xml version="1.0" encoding="utf-8"?>
<!-- Generator: Adobe Illustrator 16.0.0, SVG Export Plug-In . SVG Version: 6.00 Build 0)  -->
<!DOCTYPE svg PUBLIC "-//W3C//DTD SVG 1.1//EN" "http://www.w3.org/Graphics/SVG/1.1/DTD/svg11.dtd">
<svg version="1.1" id="Layer_1" xmlns="http://www.w3.org/2000/svg" xmlns:xlink="http://www.w3.org/1999/xlink" x="0px" y="0px"
	 width="2277.998px" height="404.644px" viewBox="0 190.022 2277.998 404.644" enable-background="new 0 190.022 2277.998 404.644"
	 xml:space="preserve">
<path fill="#89E0DC" d="M2263.255,255.293c-28.621,0-51.854-23.323-52.229-52.233h-0.033c-0.375,28.91-23.606,52.233-52.229,52.233
	s-51.854-23.323-52.229-52.233h-0.034c-0.375,28.91-23.607,52.233-52.229,52.233c-28.623,0-51.854-23.323-52.229-52.233h-0.034
	c-0.375,28.91-23.605,52.233-52.229,52.233s-51.854-23.323-52.231-52.233h-0.032c-0.374,28.91-23.604,52.233-52.229,52.233
	c-28.621,0-51.854-23.323-52.229-52.233h-0.034c-0.375,28.91-23.606,52.233-52.229,52.233s-51.854-23.323-52.229-52.233h-0.034
	c-0.375,28.91-23.607,52.233-52.229,52.233s-51.854-23.323-52.229-52.233h-0.035c-0.373,28.91-23.606,52.233-52.229,52.233
	c-28.62,0-51.854-23.323-52.229-52.233h-0.034c-0.375,28.91-23.608,52.233-52.229,52.233c-28.62,0-51.854-23.323-52.229-52.233
	h-0.035c-0.375,28.91-23.607,52.233-52.229,52.233c-28.621,0-51.854-23.323-52.229-52.233h-0.035
	c-0.374,28.91-23.607,52.233-52.229,52.233c-28.62,0-51.854-23.323-52.229-52.233h-0.035c-0.294,22.746-14.739,42.024-34.826,49.217
	v0.867c-4.678,1.393-9.622,2.149-14.743,2.149c-28.62,0-51.854-23.323-52.229-52.233h-0.035
	c-0.375,28.91-23.607,52.233-52.229,52.233c-28.622,0-51.854-23.323-52.229-52.233h-0.034c-0.375,28.91-23.604,52.233-52.228,52.233
	c-28.62,0-51.854-23.323-52.229-52.233h-0.033c-0.375,28.91-23.605,52.233-52.229,52.233c-28.621,0-51.854-23.323-52.231-52.233
	h-0.029c-0.375,28.91-23.607,52.233-52.231,52.233c-28.621,0-51.854-23.323-52.228-52.233h-0.035
	c-0.375,28.91-23.607,52.233-52.229,52.233c-28.62,0-51.854-23.323-52.229-52.233h-0.034c-0.374,28.91-23.606,52.233-52.229,52.233
	c-28.618,0-51.853-23.323-52.228-52.233h-0.035c-0.374,28.91-23.605,52.233-52.229,52.233c-28.62,0-51.854-23.323-52.229-52.233
	h-0.034c-0.375,28.91-23.606,52.233-52.229,52.233s-51.854-23.323-52.228-52.233H228.3c-0.375,28.91-5.844,52.233-34.465,52.233
	s-51.854-23.323-52.229-52.233h-3.981c-0.375,28.91-19.661,52.233-48.282,52.233c-28.62,0-51.854-23.323-52.229-52.233h-3.981
	c-0.294,22.745-10.793,42.024-30.88,49.216L0,255.454v339.212h690.359h440.891h1146.748V325.08v-50.467v-21.47
	C2273.321,254.536,2268.376,255.293,2263.255,255.293z"/>
</svg>
