<?xml version="1.0" encoding="utf-8"?>
<!-- Generator: Adobe Illustrator 16.0.0, SVG Export Plug-In . SVG Version: 6.00 Build 0)  -->
<!DOCTYPE svg PUBLIC "-//W3C//DTD SVG 1.1//EN" "http://www.w3.org/Graphics/SVG/1.1/DTD/svg11.dtd">
<svg version="1.1" id="Layer_1" xmlns="http://www.w3.org/2000/svg" xmlns:xlink="http://www.w3.org/1999/xlink" x="0px" y="0px"
	 width="255.294px" height="54.07px" viewBox="0 0 255.294 54.07" enable-background="new 0 0 255.294 54.07" xml:space="preserve">
<g>
	<path fill="#FFFFFF" d="M10.66,0.632l4.488,25.247c0.631,3.717,0.772,7.503,1.122,11.221h0.141
		c0.49-3.717,0.771-7.503,1.542-11.221l5.26-25.247h8.274l6.732,36.467h0.142c0.35-3.717,0.419-7.364,1.051-11.081L43.55,0.632
		h10.94L43.55,53.51h-9.046l-5.399-27.912c-0.351-3.226-0.983-6.452-1.473-9.678h-0.14c-0.562,3.226-0.912,6.452-1.684,9.678
		L19.777,53.51H10.66L0,0.632H10.66z"/>
	<path fill="#FFFFFF" d="M79.797,0.632v9.818H69.208v11.501h9.328v9.818h-9.328v11.922h10.73v9.818H58.758V0.632H79.797z"/>
	<path fill="#FFFFFF" d="M96.693,0.632v43.06h10.94v9.818H86.245V0.632H96.693z"/>
	<path fill="#FFFFFF" d="M138.766,10.59c-1.333-0.35-2.595-0.561-3.927-0.561c-9.188,0-13.185,8.346-13.185,16.481
		c0,7.854,3.997,17.531,13.114,17.531c1.332,0,2.665-0.35,3.998-0.771v9.889c-1.544,0.631-3.156,0.911-4.839,0.911
		c-15.078,0-23.423-13.604-23.423-27.491c0-13.115,8.696-26.58,22.933-26.58c1.822,0,3.576,0.351,5.33,0.983V10.59z"/>
	<path fill="#FFFFFF" d="M179.364,27.071c0,19.846-9.257,27.28-18.585,27.28c-9.327,0-18.584-7.435-18.584-27.28
		c0-19.848,9.257-27.281,18.584-27.281C170.107-0.21,179.364,7.224,179.364,27.071z M160.779,44.673
		c6.943,0,7.435-13.394,7.435-17.602c0-4.699-0.492-17.604-7.435-17.604c-6.942,0-7.433,12.904-7.433,17.604
		C153.346,31.279,153.836,44.673,160.779,44.673z"/>
	<path fill="#FFFFFF" d="M201.165,0.632l5.12,31.208h0.141l4.208-31.208h14.025L230.2,53.51h-10.73l-2.524-38.081h-0.141
		l-1.683,13.045l-4.488,25.036h-8.065l-5.119-25.316l-1.753-11.782v-0.982h-0.141l-1.542,38.081h-11.221l4.627-52.878H201.165z"/>
	<path fill="#FFFFFF" d="M256.558,0.632v9.818h-10.591v11.501h9.327v9.818h-9.327v11.922h10.729v9.818h-21.178V0.632H256.558z"/>
</g>
</svg>
