<?xml version="1.0" encoding="utf-8"?>
<!-- Generator: Adobe Illustrator 16.0.0, SVG Export Plug-In . SVG Version: 6.00 Build 0)  -->
<!DOCTYPE svg PUBLIC "-//W3C//DTD SVG 1.1//EN" "http://www.w3.org/Graphics/SVG/1.1/DTD/svg11.dtd">
<svg version="1.1" id="Layer_1" xmlns="http://www.w3.org/2000/svg" xmlns:xlink="http://www.w3.org/1999/xlink" x="0px" y="0px"
	 width="255.293px" height="54.07px" viewBox="0 0 255.293 54.07" enable-background="new 0 0 255.293 54.07" xml:space="preserve">
<g>
	<path fill="#FFFFFF" d="M10.66,0.632l4.488,25.247c0.631,3.719,0.772,7.503,1.122,11.223h0.141
		c0.49-3.719,0.771-7.503,1.542-11.223l5.26-25.247h8.274L38.219,37.1h0.142c0.35-3.719,0.419-7.364,1.051-11.081L43.55,0.632h10.94
		L43.55,53.51h-9.046l-5.399-27.91c-0.351-3.228-0.983-6.452-1.473-9.68h-0.14c-0.562,3.228-0.912,6.452-1.684,9.68l-6.031,27.91
		H10.66L0,0.632H10.66z"/>
	<path fill="#FFFFFF" d="M79.797,0.632v9.818H69.208v11.501h9.328v9.818h-9.328v11.922h10.73v9.816h-21.18V0.632H79.797z"/>
	<path fill="#FFFFFF" d="M96.693,0.632v43.062h10.94v9.816H86.245V0.632H96.693z"/>
	<path fill="#FFFFFF" d="M138.766,10.59c-1.332-0.35-2.596-0.561-3.928-0.561c-9.188,0-13.185,8.346-13.185,16.479
		c0,7.854,3.997,17.531,13.115,17.531c1.332,0,2.664-0.35,3.998-0.771v9.889c-1.545,0.631-3.156,0.911-4.841,0.911
		c-15.077,0-23.422-13.604-23.422-27.491c0-13.115,8.696-26.58,22.933-26.58c1.821,0,3.576,0.353,5.33,0.983V10.59L138.766,10.59z"
		/>
	<path fill="#FFFFFF" d="M179.363,27.071c0,19.846-9.256,27.28-18.584,27.28c-9.327,0-18.584-7.437-18.584-27.28
		c0-19.848,9.257-27.281,18.584-27.281C170.107-0.21,179.363,7.224,179.363,27.071z M160.779,44.673
		c6.943,0,7.435-13.394,7.435-17.602c0-4.699-0.491-17.604-7.435-17.604c-6.942,0-7.434,12.904-7.434,17.604
		C153.346,31.279,153.836,44.673,160.779,44.673z"/>
	<path fill="#FFFFFF" d="M201.165,0.632l5.121,31.208h0.141l4.207-31.208h14.025L230.2,53.51h-10.729l-2.525-38.079h-0.141
		l-1.684,13.045l-4.488,25.034h-8.064l-5.118-25.314l-1.753-11.782V15.43h-0.141l-1.543,38.079h-11.221l4.627-52.878H201.165
		L201.165,0.632z"/>
	<path fill="#FFFFFF" d="M256.559,0.632v9.818h-10.592v11.501h9.326v9.818h-9.326v11.922h10.729v9.816h-21.178V0.632H256.559z"/>
</g>
</svg>
